HIERARCHY
ROOT Hips
{
  OFFSET 0.000 82.159 0.000
  CHANNELS 6 Xposition Yposition Zposition Zrotation Xrotation Yrotation
  JOINT LeftUpLeg
  {
    OFFSET 3.002 0.623 1.167
    CHANNELS 6 Xposition Yposition Zposition Zrotation Xrotation Yrotation
    JOINT LeftLeg
    {
      OFFSET 0.000 -45.252 0.000
      CHANNELS 6 Xposition Yposition Zposition Zrotation Xrotation Yrotation
      JOINT LeftFoot
      {
        OFFSET 0.000 -37.530 0.000
        CHANNELS 6 Xposition Yposition Zposition Zrotation Xrotation Yrotation
        End Site
        {
          OFFSET 0.000 0.000 12.100
        }
      }
    }
  }
  JOINT RightUpLeg
  {
    OFFSET -3.002 0.623 1.167
    CHANNELS 6 Xposition Yposition Zposition Zrotation Xrotation Yrotation
    JOINT RightLeg
    {
      OFFSET 0.000 -45.252 0.000
      CHANNELS 6 Xposition Yposition Zposition Zrotation Xrotation Yrotation
      JOINT RightFoot
      {
        OFFSET 0.000 -37.530 0.000
        CHANNELS 6 Xposition Yposition Zposition Zrotation Xrotation Yrotation
        End Site
        {
          OFFSET 0.000 0.000 12.100
        }
      }
    }
  }
  JOINT Spine
  {
    OFFSET 0.000 34.300 0.000
    CHANNELS 6 Xposition Yposition Zposition Zrotation Xrotation Yrotation
    JOINT Spine1
    {
      OFFSET 0.000 25.000 0.000
      CHANNELS 6 Xposition Yposition Zposition Zrotation Xrotation Yrotation
      JOINT LeftShoulder
      {
        OFFSET 1.800 -0.600 0.200
        CHANNELS 6 Xposition Yposition Zposition Zrotation Xrotation Yrotation
        JOINT LeftArm
        {
          OFFSET 13.714 0.000 0.000
          CHANNELS 6 Xposition Yposition Zposition Zrotation Xrotation Yrotation
          JOINT LeftForeArm
          {
            OFFSET 26.603 0.000 0.000
            CHANNELS 6 Xposition Yposition Zposition Zrotation Xrotation Yrotation
            JOINT LeftHand
            {
              OFFSET 24.110 0.000 0.000
              CHANNELS 6 Xposition Yposition Zposition Zrotation Xrotation Yrotation
              JOINT LeftHandThumb1
              {
                OFFSET 4.877 -1.044 3.608
                CHANNELS 6 Xposition Yposition Zposition Zrotation Xrotation Yrotation
                JOINT LeftHandThumb2
                {
                  OFFSET 2.665 0.000 0.000
                  CHANNELS 6 Xposition Yposition Zposition Zrotation Xrotation Yrotation
                  JOINT LeftHandThumb3
                  {
                    OFFSET 2.543 0.000 0.000
                    CHANNELS 6 Xposition Yposition Zposition Zrotation Xrotation Yrotation
                    End Site
                    {
                      OFFSET 2.667 0.000 0.000
                    }
                  }
                }
              }
              JOINT LeftHandIndex1
              {
                OFFSET 9.232 -0.301 2.144
                CHANNELS 6 Xposition Yposition Zposition Zrotation Xrotation Yrotation
                JOINT LeftHandIndex2
                {
                  OFFSET 4.225 0.000 -0.000
                  CHANNELS 6 Xposition Yposition Zposition Zrotation Xrotation Yrotation
                  JOINT LeftHandIndex3
                  {
                    OFFSET 2.654 0.000 0.000
                    CHANNELS 6 Xposition Yposition Zposition Zrotation Xrotation Yrotation
                    End Site
                    {
                      OFFSET 1.958 -0.000 0.000
                    }
                  }
                }
              }
              JOINT LeftHandMiddle1
              {
                OFFSET 8.920 0.000 -0.000
                CHANNELS 6 Xposition Yposition Zposition Zrotation Xrotation Yrotation
                JOINT LeftHandMiddle2
                {
                  OFFSET 4.863 0.000 -0.000
                  CHANNELS 6 Xposition Yposition Zposition Zrotation Xrotation Yrotation
                  JOINT LeftHandMiddle3
                  {
                    OFFSET 2.765 0.000 0.000
                    CHANNELS 6 Xposition Yposition Zposition Zrotation Xrotation Yrotation
                    End Site
                    {
                      OFFSET 2.006 0.000 0.000
                    }
                  }
                }
              }
              JOINT LeftHandRing1
              {
                OFFSET 8.689 -0.126 -2.087
                CHANNELS 6 Xposition Yposition Zposition Zrotation Xrotation Yrotation
                JOINT LeftHandRing2
                {
                  OFFSET 4.538 0.000 0.000
                  CHANNELS 6 Xposition Yposition Zposition Zrotation Xrotation Yrotation
                  JOINT LeftHandRing3
                  {
                    OFFSET 2.305 0.000 -0.000
                    CHANNELS 6 Xposition Yposition Zposition Zrotation Xrotation Yrotation
                    End Site
                    {
                      OFFSET 1.923 0.000 -0.000
                    }
                  }
                }
              }
              JOINT LeftHandPinky1
              {
                OFFSET 8.391 -0.817 -3.758
                CHANNELS 6 Xposition Yposition Zposition Zrotation Xrotation Yrotation
                JOINT LeftHandPinky2
                {
                  OFFSET 3.044 0.000 0.000
                  CHANNELS 6 Xposition Yposition Zposition Zrotation Xrotation Yrotation
                  JOINT LeftHandPinky3
                  {
                    OFFSET 1.975 0.000 0.000
                    CHANNELS 6 Xposition Yposition Zposition Zrotation Xrotation Yrotation
                    End Site
                    {
                      OFFSET 1.667 0.000 -0.000
                    }
                  }
                }
              }
            }
          }
        }
      }
      JOINT RightShoulder
      {
        OFFSET -1.800 -0.600 0.200
        CHANNELS 6 Xposition Yposition Zposition Zrotation Xrotation Yrotation
        JOINT RightArm
        {
          OFFSET -13.714 0.000 0.000
          CHANNELS 6 Xposition Yposition Zposition Zrotation Xrotation Yrotation
          JOINT RightForeArm
          {
            OFFSET -26.603 0.000 0.000
            CHANNELS 6 Xposition Yposition Zposition Zrotation Xrotation Yrotation
            JOINT RightHand
            {
              OFFSET -24.110 0.000 0.000
              CHANNELS 6 Xposition Yposition Zposition Zrotation Xrotation Yrotation
              JOINT RightHandThumb1
              {
                OFFSET -4.877 -1.044 3.608
                CHANNELS 6 Xposition Yposition Zposition Zrotation Xrotation Yrotation
                JOINT RightHandThumb2
                {
                  OFFSET -2.665 0.000 0.000
                  CHANNELS 6 Xposition Yposition Zposition Zrotation Xrotation Yrotation
                  JOINT RightHandThumb3
                  {
                    OFFSET -2.543 0.000 0.000
                    CHANNELS 6 Xposition Yposition Zposition Zrotation Xrotation Yrotation
                    End Site
                    {
                      OFFSET -2.667 0.000 0.000
                    }
                  }
                }
              }
              JOINT RightHandIndex1
              {
                OFFSET -9.232 -0.301 2.144
                CHANNELS 6 Xposition Yposition Zposition Zrotation Xrotation Yrotation
                JOINT RightHandIndex2
                {
                  OFFSET -4.225 0.000 0.000
                  CHANNELS 6 Xposition Yposition Zposition Zrotation Xrotation Yrotation
                  JOINT RightHandIndex3
                  {
                    OFFSET -2.654 0.000 0.000
                    CHANNELS 6 Xposition Yposition Zposition Zrotation Xrotation Yrotation
                    End Site
                    {
                      OFFSET -1.958 0.000 0.000
                    }
                  }
                }
              }
              JOINT RightHandMiddle1
              {
                OFFSET -8.920 0.000 -0.000
                CHANNELS 6 Xposition Yposition Zposition Zrotation Xrotation Yrotation
                JOINT RightHandMiddle2
                {
                  OFFSET -4.863 -0.000 0.000
                  CHANNELS 6 Xposition Yposition Zposition Zrotation Xrotation Yrotation
                  JOINT RightHandMiddle3
                  {
                    OFFSET -2.765 0.000 -0.000
                    CHANNELS 6 Xposition Yposition Zposition Zrotation Xrotation Yrotation
                    End Site
                    {
                      OFFSET -2.006 0.000 0.000
                    }
                  }
                }
              }
              JOINT RightHandRing1
              {
                OFFSET -8.689 -0.126 -2.087
                CHANNELS 6 Xposition Yposition Zposition Zrotation Xrotation Yrotation
                JOINT RightHandRing2
                {
                  OFFSET -4.538 0.000 0.000
                  CHANNELS 6 Xposition Yposition Zposition Zrotation Xrotation Yrotation
                  JOINT RightHandRing3
                  {
                    OFFSET -2.305 0.000 0.000
                    CHANNELS 6 Xposition Yposition Zposition Zrotation Xrotation Yrotation
                    End Site
                    {
                      OFFSET -1.923 0.000 0.000
                    }
                  }
                }
              }
              JOINT RightHandPinky1
              {
                OFFSET -8.391 -0.817 -3.758
                CHANNELS 6 Xposition Yposition Zposition Zrotation Xrotation Yrotation
                JOINT RightHandPinky2
                {
                  OFFSET -3.044 0.000 -0.000
                  CHANNELS 6 Xposition Yposition Zposition Zrotation Xrotation Yrotation
                  JOINT RightHandPinky3
                  {
                    OFFSET -1.975 0.000 0.000
                    CHANNELS 6 Xposition Yposition Zposition Zrotation Xrotation Yrotation
                    End Site
                    {
                      OFFSET -1.667 0.000 0.000
                    }
                  }
                }
              }
            }
          }
        }
      }
      JOINT Neck
      {
        OFFSET 0.000 0.800 0.000
        CHANNELS 6 Xposition Yposition Zposition Zrotation Xrotation Yrotation
        JOINT Head
        {
          OFFSET 0.000 7.300 0.000
          CHANNELS 6 Xposition Yposition Zposition Zrotation Xrotation Yrotation
          End Site
          {
            OFFSET 0.000 15.100 0.000
          }
        }
      }
    }
  }
}
MOTION
Frames:	4
Frame Time:	0.033333
-37.56384 75.68544 -226.73877 8.02503 -0.58233 47.07206 -0.38755 -0.24553 2.43179 -17.90942 -2.52864 8.48571 -0.81429 -34.60932 -1.14874 0.89452 40.96802 24.39442 0.35199 -38.76985 -0.77935 -17.04431 -13.86619 24.84043 -3.65076 1.31881 3.12925 6.84533 -6.02876 22.95400 0.09842 -42.25610 0.22838 -18.33990 47.98583 11.18289 0.45415 -35.45234 -0.15804 -0.94982 7.66067 -3.59675 0.26443 28.26823 0.09379 0.90025 1.77510 15.92369 0.03438 20.91029 -0.07127 1.84160 1.97442 14.58393 1.46234 -0.33190 0.05114 -12.88263 0.63936 -3.04051 13.65597 -0.03978 0.07144 -150.43562 2.84123 -11.20995 27.48024 -0.26282 -0.11193 -169.88670 -84.26134 59.09303 24.20629 -2.27902 -0.35204 -64.78638 -42.65022 -52.38062 4.87701 -1.04399 3.60799 -41.57214 -8.45180 -7.73365 2.66500 0.00002 0.00002 0.00000 0.00000 5.00547 2.54300 0.00002 0.00001 0.00000 0.00000 59.99569 9.23201 -0.30100 2.14398 -79.99648 0.00000 0.00000 4.22500 0.00000 -0.00002 -89.99620 0.00000 0.00000 2.65400 0.00002 0.00001 -69.99618 0.00514 -0.00498 8.92000 0.00000 -0.00001 -79.99648 0.00000 0.00000 4.86300 0.00000 -0.00002 -89.99620 0.00000 0.00000 2.76500 0.00000 0.00000 -69.99618 0.00514 -0.00498 8.68899 -0.12600 -2.08701 -79.99648 0.00000 0.00000 4.53800 0.00000 0.00001 -89.99620 0.00000 0.00000 2.30501 0.00002 -0.00001 -69.99618 0.00514 -0.00498 8.39099 -0.81701 -3.75800 -79.99648 0.00000 0.00000 3.04401 0.00002 0.00000 -89.99620 0.00000 0.00000 1.97499 0.00000 0.00001 -69.99618 0.00514 -0.00498 -1.19400 -0.27319 -0.03357 16.29010 1.36373 3.61461 -11.14810 -0.02583 0.02204 16.84975 -13.99404 10.68429 -25.17078 0.30229 -0.40931 -2.87263 31.40835 6.68380 -22.13564 0.13913 -0.10888 -15.00764 67.55630 5.22109 -4.87701 -1.04400 3.60800 35.18567 15.18859 5.35960 -2.66498 0.00001 0.00000 -0.00000 -0.00000 -6.19283 -2.54300 0.00001 0.00000 0.00000 0.00000 -49.26216 -9.23201 -0.30100 2.14401 46.18613 0.00000 0.00000 -4.22497 0.00000 0.00000 52.61530 0.00000 -0.00000 -2.65399 0.00000 0.00001 43.32957 0.81494 0.86888 -8.92001 0.00002 -0.00001 65.68289 0.00000 0.00000 -4.86299 -0.00001 0.00002 74.48970 0.00000 -0.00000 -2.76500 0.00001 -0.00002 60.44958 1.03728 0.58899 -8.68901 -0.12599 -2.08701 65.68289 0.00000 0.00000 -4.53801 0.00002 0.00000 74.48970 0.00000 -0.00000 -2.30502 0.00000 0.00002 60.44958 1.03728 0.58899 -8.39101 -0.81700 -3.75800 46.18613 0.00000 0.00000 -3.04399 0.00001 -0.00001 52.61530 0.00000 -0.00000 -1.97500 0.00001 0.00001 43.32957 0.81494 0.86888 -0.00058 0.68257 0.00071 -0.00499 0.00609 -0.00407 -0.00371 6.20976 -0.11355 -30.95289 -5.36963 -40.22571 
-33.01934 72.69307 -227.44997 8.04673 0.97365 52.30561 -0.44260 -0.06623 2.18289 -24.70858 -5.60543 2.04199 -0.79342 -35.13121 -0.59387 11.52912 44.13256 24.15960 0.35669 -38.67088 -0.73550 -12.73231 -13.01212 13.36063 -4.22110 1.54039 2.78936 4.86506 -10.68248 18.76316 0.18992 -40.07732 -0.15067 -18.39004 55.00360 10.57494 0.38911 -36.72914 -0.39550 1.30171 14.91055 -7.28096 0.22118 28.15698 0.11546 1.13202 1.70476 12.62627 0.02916 20.85560 -0.07122 1.96968 1.86683 11.68665 1.43624 -0.35776 0.02081 -14.68162 0.55480 -2.34306 13.47862 -0.07020 0.10272 -151.17044 6.72895 -12.59302 27.63772 -0.31633 -0.20966 168.57555 -82.74448 35.54297 24.62920 -1.55854 -0.18262 -58.92295 -31.31756 -46.25127 4.87701 -1.04399 3.60799 -41.57214 -8.45180 -7.73365 2.66500 0.00002 0.00002 0.00000 0.00000 5.00547 2.54300 0.00002 0.00001 0.00000 0.00000 59.99569 9.23201 -0.30100 2.14398 -79.99648 0.00000 0.00000 4.22500 0.00000 -0.00002 -89.99620 0.00000 0.00000 2.65400 0.00002 0.00001 -69.99618 0.00514 -0.00498 8.92000 0.00000 -0.00001 -79.99648 0.00000 0.00000 4.86300 0.00000 -0.00002 -89.99620 0.00000 0.00000 2.76500 0.00000 0.00000 -69.99618 0.00514 -0.00498 8.68899 -0.12600 -2.08701 -79.99648 0.00000 0.00000 4.53800 0.00000 0.00001 -89.99620 0.00000 0.00000 2.30501 0.00002 -0.00001 -69.99618 0.00514 -0.00498 8.39099 -0.81701 -3.75800 -79.99648 0.00000 0.00000 3.04401 0.00002 0.00000 -89.99620 0.00000 0.00000 1.97499 0.00000 0.00001 -69.99618 0.00514 -0.00498 -1.17325 -0.15780 -0.03040 10.40488 0.97772 2.88924 -10.71247 -0.06404 0.01595 18.83049 -18.38620 14.24750 -25.86314 0.46180 -0.33607 -5.88413 21.86601 15.40433 -22.28551 1.48345 -0.49991 154.22647 71.27085 -168.10732 -4.87701 -1.04400 3.60800 36.10074 17.48676 6.45874 -2.66498 0.00001 0.00000 -0.00000 -0.00000 -5.73628 -2.54300 0.00001 0.00000 0.00000 0.00000 -53.37204 -9.23201 -0.30100 2.14401 59.15567 0.00000 0.00000 -4.22497 0.00000 0.00000 66.95493 0.00000 -0.00000 -2.65399 0.00000 0.00001 53.56324 0.59104 0.43847 -8.92001 0.00002 -0.00001 71.16273 0.00000 0.00000 -4.86299 -0.00001 0.00002 80.42623 0.00000 -0.00000 -2.76500 0.00001 -0.00002 64.10641 0.66211 0.32209 -8.68901 -0.12599 -2.08701 71.16273 0.00000 0.00000 -4.53801 0.00002 0.00000 80.42623 0.00000 -0.00000 -2.30502 0.00000 0.00002 64.10641 0.66211 0.32209 -8.39101 -0.81700 -3.75800 59.15567 0.00000 0.00000 -3.04399 0.00001 -0.00001 66.95493 0.00000 -0.00000 -1.97500 0.00001 0.00001 53.56324 0.59104 0.43847 -0.00058 0.68136 0.00071 -0.00499 0.00609 -0.00407 -0.00450 6.21453 -0.11885 -33.41878 -6.90498 -38.59596 
-28.44290 68.58414 -227.76003 7.64086 1.70819 39.45992 0.00538 0.20904 2.67354 -27.98086 -16.81326 12.50606 0.74326 -28.93338 -1.43099 22.52413 47.67573 19.26866 0.83351 -43.85575 -0.22727 -24.56162 -12.28513 -20.28206 -3.55462 1.56794 3.05767 7.56608 -13.37938 33.45515 0.25525 -38.49080 -0.27905 -21.31378 63.16633 13.13496 0.31945 -36.58981 -0.38719 1.14802 10.87946 -2.52638 0.05047 28.65080 -0.00001 0.92691 1.85254 17.52653 -0.03609 21.22495 -0.11023 1.87326 1.83934 16.95850 1.41875 -0.32828 -0.08050 -15.05299 -0.15059 0.23726 13.34461 -0.08577 0.11343 -152.75282 9.05435 -13.29480 27.81797 -0.34386 -0.24060 156.37611 -80.98476 21.70017 24.93381 -1.10948 -0.11438 -60.85580 -19.81031 -50.70818 4.87701 -1.04399 3.60799 -41.57214 -8.45180 -7.73365 2.66500 0.00002 0.00002 0.00000 0.00000 5.00547 2.54300 0.00002 0.00001 0.00000 0.00000 59.99569 9.23201 -0.30100 2.14398 -79.99648 0.00000 0.00000 4.22500 0.00000 -0.00002 -89.99620 0.00000 0.00000 2.65400 0.00002 0.00001 -69.99618 0.00514 -0.00498 8.92000 0.00000 -0.00001 -79.99648 0.00000 0.00000 4.86300 0.00000 -0.00002 -89.99620 0.00000 0.00000 2.76500 0.00000 0.00000 -69.99618 0.00514 -0.00498 8.68899 -0.12600 -2.08701 -79.99648 0.00000 0.00000 4.53800 0.00000 0.00001 -89.99620 0.00000 0.00000 2.30501 0.00002 -0.00001 -69.99618 0.00514 -0.00498 8.39099 -0.81701 -3.75800 -79.99648 0.00000 0.00000 3.04401 0.00002 0.00000 -89.99620 0.00000 0.00000 1.97499 0.00000 0.00001 -69.99618 0.00514 -0.00498 -1.17003 0.03648 -0.13687 3.33155 1.22779 -0.14972 -10.46204 -0.01265 -0.02653 24.52573 -18.22177 20.99591 -26.54098 0.37045 -0.12927 -7.31049 14.52577 24.15716 -21.38229 1.47315 -0.57636 155.24521 15.10395 -173.91617 -4.87701 -1.04400 3.60800 36.63727 18.93310 7.13423 -2.66498 0.00001 0.00000 -0.00000 -0.00000 -5.45230 -2.54300 0.00001 0.00000 0.00000 0.00000 -55.92840 -9.23201 -0.30100 2.14401 67.19527 0.00000 0.00000 -4.22497 0.00000 0.00000 75.84335 0.00000 -0.00000 -2.65399 0.00000 0.00001 59.90348 0.39095 0.22735 -8.92001 0.00002 -0.00001 74.57121 0.00000 0.00000 -4.86299 -0.00001 0.00002 84.11877 0.00000 -0.00000 -2.76500 0.00001 -0.00002 66.38003 0.41434 0.18145 -8.68901 -0.12599 -2.08701 74.57121 0.00000 0.00000 -4.53801 0.00002 0.00000 84.11877 0.00000 -0.00000 -2.30502 0.00000 0.00002 66.38003 0.41434 0.18145 -8.39101 -0.81700 -3.75800 67.19527 0.00000 0.00000 -3.04399 0.00001 -0.00001 75.84335 0.00000 -0.00000 -1.97500 0.00001 0.00001 59.90348 0.39095 0.22735 -0.00058 0.69691 0.00071 -0.00499 0.00609 -0.00407 -0.00803 6.33821 -0.10893 -34.12107 -7.99635 -37.53794 
-23.48988 64.61628 -228.70660 8.29130 3.23142 41.52756 0.06804 0.24245 2.62045 -33.06842 -21.88084 5.30132 0.54001 -25.13341 -2.02625 27.45354 53.79327 14.10391 1.06159 -48.04456 0.30190 -31.25636 -10.11116 -41.78325 -3.78023 1.72844 2.90872 5.86288 -16.11105 29.64929 0.10202 -37.26707 -0.40149 -33.59093 67.35478 22.42366 0.30117 -37.45378 -0.65217 -1.43143 -2.93355 -3.44691 0.01352 28.97816 0.02922 1.03054 1.83450 15.94523 -0.04826 21.48790 -0.08605 1.91290 1.80641 15.50494 1.38506 -0.31224 -0.14673 -16.40910 -0.57332 1.44803 13.09022 -0.07206 0.09348 -143.89732 4.82101 -14.37256 26.83484 -0.07135 -0.27529 131.56024 -81.48126 4.02464 25.22744 -0.86941 -0.16509 -45.64759 -15.70555 -59.25506 4.87701 -1.04399 3.60799 -41.57214 -8.45180 -7.73365 2.66500 0.00002 0.00002 0.00000 0.00000 5.00547 2.54300 0.00002 0.00001 0.00000 0.00000 59.99569 9.23201 -0.30100 2.14398 -79.99648 0.00000 0.00000 4.22500 0.00000 -0.00002 -89.99620 0.00000 0.00000 2.65400 0.00002 0.00001 -69.99618 0.00514 -0.00498 8.92000 0.00000 -0.00001 -79.99648 0.00000 0.00000 4.86300 0.00000 -0.00002 -89.99620 0.00000 0.00000 2.76500 0.00000 0.00000 -69.99618 0.00514 -0.00498 8.68899 -0.12600 -2.08701 -79.99648 0.00000 0.00000 4.53800 0.00000 0.00001 -89.99620 0.00000 0.00000 2.30501 0.00002 -0.00001 -69.99618 0.00514 -0.00498 8.39099 -0.81701 -3.75800 -79.99648 0.00000 0.00000 3.04401 0.00002 0.00000 -89.99620 0.00000 0.00000 1.97499 0.00000 0.00001 -69.99618 0.00514 -0.00498 -1.17289 0.17219 -0.18547 -1.98132 1.24090 -1.64356 -10.43315 0.06582 -0.10786 26.92052 -20.69818 24.25767 -26.98067 0.33284 -0.09201 -4.82065 8.17161 34.51675 -20.77565 1.77459 -0.20825 151.97740 -15.00972 -178.91971 -4.87701 -1.04400 3.60800 36.95665 19.83638 7.55172 -2.66498 0.00001 0.00000 -0.00000 -0.00000 -5.27637 -2.54300 0.00001 0.00000 0.00000 0.00000 -57.51217 -9.23201 -0.30100 2.14401 72.17603 0.00000 0.00000 -4.22497 0.00000 0.00000 81.35000 0.00000 -0.00000 -2.65399 0.00000 0.00001 63.83101 0.24798 0.12201 -8.92001 0.00002 -0.00001 76.68289 0.00000 0.00000 -4.86299 -0.00001 0.00002 86.40646 0.00000 -0.00000 -2.76500 0.00001 -0.00002 67.78828 0.25586 0.10453 -8.68901 -0.12599 -2.08701 76.68289 0.00000 0.00000 -4.53801 0.00002 0.00000 86.40646 0.00000 -0.00000 -2.30502 0.00000 0.00002 67.78828 0.25586 0.10453 -8.39101 -0.81700 -3.75800 72.17603 0.00000 0.00000 -3.04399 0.00001 -0.00001 81.35000 0.00000 -0.00000 -1.97500 0.00001 0.00001 63.83101 0.24798 0.12201 -0.00058 0.70836 0.00071 -0.00499 0.00609 -0.00407 -0.01064 6.47444 -0.14658 -37.80275 -5.85966 -36.90338 
